<svg xmlns="http://www.w3.org/2000/svg" xmlns:xlink="http://www.w3.org/1999/xlink" width="48" height="48" version="1.1" viewBox="0 0 48 48" xml:space="preserve"><desc>Created with Fabric.js 3.6.6</desc><g><g transform="matrix(0.05 0 0 0.05 24.12 25.05)"><g id="icon-0" transform="matrix(5.06 0 0 5.06 24.6 -24.6)"><rect style="stroke:none;stroke-width:1;stroke-dasharray:none;stroke-linecap:butt;stroke-dashoffset:0;stroke-linejoin:miter;stroke-miterlimit:4;fill:#332885;fill-rule:nonzero;opacity:1" width="195.026" height="195.026" x="-97.513" y="-97.513" rx="0" ry="0"/></g><g id="icon-0" transform="matrix(5.06 0 0 5.06 -24.6 24.6)"><rect style="stroke:none;stroke-width:1;stroke-dasharray:none;stroke-linecap:butt;stroke-dashoffset:0;stroke-linejoin:miter;stroke-miterlimit:4;fill:#332885;fill-rule:nonzero;opacity:.5" width="195.026" height="195.026" x="-97.513" y="-97.513" rx="0" ry="0"/></g><g id="z$-0" transform="matrix(9.77 0 0 9.77 141.73 21.88)"><polygon style="stroke:none;stroke-width:1;stroke-dasharray:none;stroke-linecap:butt;stroke-dashoffset:0;stroke-linejoin:miter;stroke-miterlimit:4;fill:#fff;fill-rule:nonzero;opacity:1" points="-19.62 -4.34 -19.62 -3.59 -19.62 18.5 19.62 18.5 -19.62 -18.5"/></g><g id="z$-0" transform="matrix(9.77 0 0 9.77 32.75 -148.54)"><polygon style="stroke:none;stroke-width:1;stroke-dasharray:none;stroke-linecap:butt;stroke-dashoffset:0;stroke-linejoin:miter;stroke-miterlimit:4;fill:#fff;fill-rule:nonzero;opacity:1" points="7.99 -12.4 -7.99 -2.66 7.99 12.4"/></g><g id="z$-0" transform="matrix(9.77 0 0 9.77 -309.66 21.8)"><polygon style="stroke:none;stroke-width:1;stroke-dasharray:none;stroke-linecap:butt;stroke-dashoffset:0;stroke-linejoin:miter;stroke-miterlimit:4;fill:#fff;fill-rule:nonzero;opacity:1" points="-6.9 3.29 6.9 3.29 -.45 -3.3"/></g><g id="z$-0" transform="matrix(9.77 0 0 9.77 -179.89 90.15)"><polygon style="stroke:none;stroke-width:1;stroke-dasharray:none;stroke-linecap:butt;stroke-dashoffset:0;stroke-linejoin:miter;stroke-miterlimit:4;fill:#fff;fill-rule:nonzero;opacity:1" points="11.81 10.58 11.81 -10.58 -11.81 -10.58"/></g><g id="z$-0" transform="matrix(9.77 0 0 9.77 405.88 173.57)"><polygon style="stroke:none;stroke-width:1;stroke-dasharray:none;stroke-linecap:butt;stroke-dashoffset:0;stroke-linejoin:miter;stroke-miterlimit:4;fill:#fff;fill-rule:nonzero;opacity:1" points="2.09 4.79 2.09 -4.79 -2.09 .54"/></g><g id="z$-0" transform="matrix(9.77 0 0 9.77 339.08 155.97)"><polygon style="stroke:none;stroke-width:1;stroke-dasharray:none;stroke-linecap:butt;stroke-dashoffset:0;stroke-linejoin:miter;stroke-miterlimit:4;fill:#fff;fill-rule:nonzero;opacity:1" points="8.14 -4.41 -8.14 -4.41 1.22 4.41"/></g></g></g></svg>